<svg width="2000" height="2000" viewBox="0 0 2000 2000" fill="none" xmlns="http://www.w3.org/2000/svg">
<rect width="2000" height="2000" rx="100" fill="white"/>
<rect x="1075" y="703" width="120" height="600" fill="black"/>
<rect x="1195" y="1183" width="120" height="120" fill="black"/>
<path d="M1075 1296H1195V1416H1175C1119.77 1416 1075 1371.23 1075 1316V1296Z" fill="black"/>
<rect x="1555" y="823" width="120" height="120" fill="black"/>
<rect x="1435" y="945" width="120" height="120" fill="black"/>
<path d="M1795 583H1815C1870.23 583 1915 627.772 1915 683V703H1795V583Z" fill="black"/>
<rect x="1315" y="1065" width="120" height="120" fill="black"/>
<path d="M1675 703H1795V823H1675V703Z" fill="black"/>
<rect x="1195" y="703" width="120" height="600" transform="rotate(-90 1195 703)" fill="black"/>
<rect x="1195" y="1416" width="120" height="600" transform="rotate(-90 1195 1416)" fill="black"/>
<rect x="1795" y="702" width="120" height="600" fill="black"/>
<rect x="227" y="1183" width="120" height="120" fill="black"/>
<path d="M827 1296H947V1316C947 1371.23 902.228 1416 847 1416H827V1296Z" fill="black"/>
<rect x="587" y="823" width="120" height="120" fill="black"/>
<rect x="467" y="945" width="120" height="120" fill="black"/>
<rect x="347" y="1065" width="120" height="120" fill="black"/>
<path d="M707 703H827V823H707V703Z" fill="black"/>
<rect x="123" y="1416" width="120" height="720" transform="rotate(-90 123 1416)" fill="black"/>
<rect x="827" y="583" width="120" height="720" fill="black"/>
</svg>
